<?xml version="1.0" encoding="UTF-8" standalone="no"?>
<!-- Created with Inkscape (http://www.inkscape.org/) -->

<svg
   xmlns:dc="http://purl.org/dc/elements/1.1/"
   xmlns:cc="http://creativecommons.org/ns#"
   xmlns:rdf="http://www.w3.org/1999/02/22-rdf-syntax-ns#"
   xmlns:svg="http://www.w3.org/2000/svg"
   xmlns="http://www.w3.org/2000/svg"
   xmlns:sodipodi="http://sodipodi.sourceforge.net/DTD/sodipodi-0.dtd"
   xmlns:inkscape="http://www.inkscape.org/namespaces/inkscape"
   width="16px"
   height="16px"
   viewBox="0 0 16 16"
   version="1.1"
   id="SVGRoot"
   inkscape:version="0.92.4 (5da689c313, 2019-01-14)"
   sodipodi:docname="logo_round.svg">
  <defs
     id="defs815">
    <clipPath
       clipPathUnits="userSpaceOnUse"
       id="clipPath1527">
      <circle
         r="7.6234951"
         cy="7.9787574"
         cx="6.7283487"
         id="circle1529"
         style="display:inline;fill:#b08000;fill-opacity:1;fill-rule:nonzero;stroke:none;stroke-width:0;stroke-linecap:round;stroke-linejoin:round;stroke-miterlimit:4;stroke-dasharray:none;stroke-opacity:0.72375692;paint-order:stroke fill markers"
         clip-path="none" />
    </clipPath>
  </defs>
  <sodipodi:namedview
     id="base"
     pagecolor="#ffffff"
     bordercolor="#666666"
     borderopacity="1.0"
     inkscape:pageopacity="0.0"
     inkscape:pageshadow="2"
     inkscape:zoom="16"
     inkscape:cx="5.9259202"
     inkscape:cy="6.6838323"
     inkscape:document-units="px"
     inkscape:current-layer="layer1"
     showgrid="false"
     inkscape:window-width="1366"
     inkscape:window-height="705"
     inkscape:window-x="-8"
     inkscape:window-y="-8"
     inkscape:window-maximized="1"
     inkscape:grid-bbox="true" />
  <metadata
     id="metadata818">
    <rdf:RDF>
      <cc:Work
         rdf:about="">
        <dc:format>image/svg+xml</dc:format>
        <dc:type
           rdf:resource="http://purl.org/dc/dcmitype/StillImage" />
        <dc:title></dc:title>
      </cc:Work>
    </rdf:RDF>
  </metadata>
  <g
     inkscape:label="Layer 1"
     inkscape:groupmode="layer"
     id="layer1">
    <circle
       r="7.6234951"
       cy="7.977417"
       cx="7.9991441"
       id="circle1451-7"
       style="fill:#1976d2;fill-opacity:1;fill-rule:nonzero;stroke:#a66b76;stroke-width:0;stroke-linecap:round;stroke-linejoin:round;stroke-miterlimit:4;stroke-dasharray:none;stroke-opacity:0.72375692;paint-order:stroke fill markers" />
    <rect
       style="fill:#ffffff;fill-opacity:1;fill-rule:nonzero;stroke:none;stroke-width:0;stroke-linecap:round;stroke-linejoin:round;stroke-miterlimit:4;stroke-dasharray:none;stroke-opacity:0.72375692;paint-order:stroke fill markers"
       id="rect1520"
       width="4.0247173"
       height="0.83968914"
       x="1.3238403"
       y="5.8827195"
       ry="0.41984457" />
    <rect
       style="fill:#ffffff;fill-opacity:1;fill-rule:nonzero;stroke:none;stroke-width:0;stroke-linecap:round;stroke-linejoin:round;stroke-miterlimit:4;stroke-dasharray:none;stroke-opacity:0.72375692;paint-order:stroke fill markers"
       id="rect1520-7"
       width="4.0247173"
       height="0.83968914"
       x="2.9373889"
       y="7.5810099"
       ry="0.41984457" />
    <rect
       style="fill:#ffffff;fill-opacity:1;fill-rule:nonzero;stroke:none;stroke-width:0;stroke-linecap:round;stroke-linejoin:round;stroke-miterlimit:4;stroke-dasharray:none;stroke-opacity:0.72375692;paint-order:stroke fill markers"
       id="rect1520-1"
       width="4.0247173"
       height="0.83968914"
       x="3.1141655"
       y="4.3106408"
       ry="0.41984457" />
    <rect
       style="fill:#ffffff;fill-opacity:1;fill-rule:nonzero;stroke:none;stroke-width:0;stroke-linecap:round;stroke-linejoin:round;stroke-miterlimit:4;stroke-dasharray:none;stroke-opacity:0.72375692;paint-order:stroke fill markers"
       id="rect1520-7-9"
       width="4.0247173"
       height="0.83968914"
       x="2.2744761"
       y="9.392971"
       ry="0.41984457" />
    <rect
       style="fill:#ffffff;fill-opacity:1;fill-rule:nonzero;stroke:none;stroke-width:0;stroke-linecap:round;stroke-linejoin:round;stroke-miterlimit:4;stroke-dasharray:none;stroke-opacity:0.72375692;paint-order:stroke fill markers"
       id="rect1520-7-9-2"
       width="4.0247173"
       height="0.83968914"
       x="3.5119131"
       y="11.29332"
       ry="0.41984457" />
  </g>
  <g
     id="g1514"
     clip-path="url(#clipPath1527)"
     transform="translate(1.2928932)"
     inkscape:label="g1514">
    <circle
       clip-path="none"
       r="5.2370095"
       cy="8.7742519"
       cx="11.733553"
       id="path1481"
       style="fill:#ffffff;fill-opacity:1;fill-rule:nonzero;stroke:none;stroke-width:0;stroke-linecap:round;stroke-linejoin:round;stroke-miterlimit:4;stroke-dasharray:none;stroke-opacity:0.72375692;paint-order:stroke fill markers" />
    <g
       transform="matrix(0.15303031,0,0,0.15303031,3.9982956,0.39547477)"
       id="g1379">
      <g
         id="g1377">
        <g
           id="g1373">
          <g
             id="g1371" />
        </g>
        <g
           id="g1375" />
      </g>
    </g>
    <g
       transform="matrix(0.15303031,0,0,0.15303031,3.9982956,0.39547477)"
       id="g1387">
      <path
         style="fill:#231f20;stroke-width:0.2505303"
         d="m 7.9375,4.625 c -0.2765855,0 -0.5019531,0.2234145 -0.5019531,0.5 v 2.4277344 c -0.2505304,0.1736176 -0.5,0.4934985 -0.5,0.8632812 0,0.5534214 0.4485317,1.0019531 1.0019531,1.0019532 0.5534214,0 1.0019531,-0.4485318 1.0019531,-1.0019532 0,-0.3700332 -0.2494696,-0.6896636 -0.5,-0.8632812 V 5.125 c 0,-0.2765855 -0.2253676,-0.5 -0.5019531,-0.5 z M 7.917969,7.9941406 a 0.4388015,0.4388015 0 0 1 0.03125,0 0.4388015,0.4388015 0 0 1 0.4394531,0.4375 0.4388015,0.4388015 0 0 1 -0.4394531,0.4394532 0.4388015,0.4388015 0 0 1 -0.4375,-0.4394532 0.4388015,0.4388015 0 0 1 0.40625,-0.4375 z"
         transform="matrix(6.5346532,0,0,6.5346532,-1.8688118,0.01485196)"
         id="path1381"
         inkscape:connector-curvature="0" />
    </g>
    <path
       style="fill:#231f20;stroke-width:0.15303031"
       inkscape:connector-curvature="0"
       d="m 16.66844,6.1188084 0.22419,-0.1293106 c 0.06228,-0.035962 0.08371,-0.1163031 0.04774,-0.1785864 L 16.382427,4.844525 C 16.346467,4.782242 16.266124,4.760817 16.20384,4.796779 l -0.298256,0.1721596 c -0.0075,0.00444 -0.01255,0.011171 -0.01897,0.01668 -0.877782,-0.9910242 -2.094373,-1.67155 -3.471646,-1.8584 V 2.6909294 H 11.955872 V 2.3848688 h 0.30606 V 1.7727476 H 11.03769 v 0.6121212 h 0.30606 V 2.6909294 H 10.88466 V 3.1272189 C 9.5073867,3.3166704 8.2585064,4.0131113 7.3779699,5.0255599 7.3669518,5.0029114 7.3516487,4.9822523 7.3282351,4.9687856 L 7.029979,4.7966265 C 6.9678487,4.7606644 6.8873548,4.7822417 6.8513926,4.844372 L 6.2934441,5.8107584 c -0.035962,0.062283 -0.014385,0.1426242 0.047745,0.1785864 L 6.615879,6.1478842 C 6.2155517,6.9242069 5.9876896,7.8035191 5.9876896,8.7356267 c 0,3.1221243 2.5399971,5.6621223 5.6621214,5.6621223 3.122125,0 5.662122,-2.539998 5.662122,-5.6621223 0,-0.9437379 -0.233371,-1.8334561 -0.643493,-2.6168183 z m -5.018629,7.6668186 c -2.7845395,0 -5.0500002,-2.26546 -5.0500002,-5.0500003 0,-2.7845395 2.2654607,-5.0500002 5.0500002,-5.0500002 2.78454,0 5.050001,2.2654607 5.050001,5.0500002 0,2.7845403 -2.265461,5.0500003 -5.050001,5.0500003 z"
       id="path1385"
       clip-path="none" />
    <circle
       r="4.6008091"
       cy="8.710248"
       cx="11.649811"
       id="path1409"
       style="fill:none;fill-opacity:1;stroke:#8ccfb9;stroke-width:1.01540935;stroke-linecap:round;stroke-linejoin:round;stroke-miterlimit:4;stroke-dasharray:none;stroke-opacity:1;paint-order:stroke fill markers" />
  </g>
</svg>
